<svg width="100" height="100" viewBox="0 0 100 100" fill="none" xmlns="http://www.w3.org/2000/svg">
<circle cx="50" cy="50" r="48.5" stroke="white" stroke-width="3"/>
<path d="M74.9907 21.8457H24.948C23.2344 21.8467 21.8454 23.2365 21.8457 24.9507V74.9934C21.8467 76.707 23.2365 78.096 24.9507 78.0957H51.8933V56.3428H44.5874V47.8284H51.8933V41.5624C51.8933 34.296 56.3294 30.3409 62.8113 30.3409C65.916 30.3409 68.5839 30.5723 69.3616 30.6756V38.2703H64.8919C61.3652 38.2703 60.6824 39.946 60.6824 42.4056V47.8284H69.1144L68.0157 56.3428H60.6824V78.0957H74.9907C76.7052 78.096 78.0954 76.7066 78.0957 74.9921C78.0957 74.9917 78.0957 74.9914 78.0957 74.9907V24.948C78.095 23.2344 76.7049 21.8454 74.9907 21.8457Z" fill="white"/>
</svg>
