<svg width="40" height="40" viewBox="0 0 40 40" fill="none" xmlns="http://www.w3.org/2000/svg">
<g clip-path="url(#clip0)">
<path d="M0 10.0001V14.4446H40V10.0001C40 8.82137 39.5317 7.69091 38.6983 6.85741C37.8648 6.02392 36.7343 5.55566 35.5556 5.55566H4.44444C3.2657 5.55566 2.13524 6.02392 1.30175 6.85741C0.468253 7.69091 0 8.82137 0 10.0001H0Z" fill="#0099B5"/>
<path d="M40 30.0001V25.5557H0V30.0001C0 31.1788 0.468253 32.3093 1.30175 33.1428C2.13524 33.9763 3.2657 34.4446 4.44444 34.4446H35.5556C36.7343 34.4446 37.8648 33.9763 38.6983 33.1428C39.5317 32.3093 40 31.1788 40 30.0001Z" fill="#1EB53A"/>
<path d="M0 14.4443H40V16.111H0V14.4443ZM0 23.8888H40V25.5554H0V23.8888Z" fill="#CE1126"/>
<path d="M0 20.0002V23.8891H40V16.1113H0V20.0002Z" fill="#EEEEEE"/>
<path d="M4.66672 10.1776C4.66681 9.35843 4.95699 8.56575 5.4858 7.94013C6.01461 7.3145 6.74789 6.89636 7.55561 6.75983C7.05837 6.67542 6.54871 6.70053 6.06218 6.8334C5.57565 6.96627 5.12397 7.2037 4.73865 7.52912C4.35334 7.85454 4.04367 8.26012 3.83125 8.71755C3.61884 9.17498 3.50879 9.67326 3.50879 10.1776C3.50879 10.682 3.61884 11.1802 3.83125 11.6377C4.04367 12.0951 4.35334 12.5007 4.73865 12.8261C5.12397 13.1515 5.57565 13.3889 6.06218 13.5218C6.54871 13.6547 7.05837 13.6798 7.55561 13.5954C6.74789 13.4589 6.01461 13.0407 5.4858 12.4151C4.95699 11.7895 4.66681 10.9968 4.66672 10.1776ZM9.87005 12.7365L9.71449 12.2576L9.55894 12.7365H9.05449L9.46227 13.0332L9.30672 13.5121L9.71449 13.2154L10.1212 13.5121L9.96561 13.0332L10.3734 12.7365H9.87005ZM12.8723 12.7365L12.7167 12.2576L12.5612 12.7365H12.0578L12.4656 13.0332L12.3101 13.5121L12.7167 13.2154L13.1245 13.5121L12.9689 13.0332L13.3767 12.7365H12.8723ZM12.7167 9.48427L12.5612 9.96316H12.0578L12.4656 10.2598L12.3101 10.7387L12.7167 10.442L13.1245 10.7387L12.9689 10.2598L13.3767 9.96316H12.8723L12.7167 9.48427ZM15.8756 12.7365L15.72 12.2576L15.5645 12.7365H15.0612L15.4678 13.0332L15.3123 13.5121L15.72 13.2154L16.1278 13.5121L15.9723 13.0332L16.3789 12.7365H15.8756ZM15.72 9.48427L15.5645 9.96316H15.0612L15.4678 10.2598L15.3123 10.7387L15.72 10.442L16.1278 10.7387L15.9723 10.2598L16.3789 9.96316H15.8756L15.72 9.48427ZM15.72 6.71094L15.5645 7.18983H15.0612L15.4678 7.48649L15.3123 7.96538L15.72 7.66872L16.1278 7.96538L15.9723 7.48649L16.3789 7.18983H15.8756L15.72 6.71094ZM18.8789 12.7365L18.7234 12.2576L18.5678 12.7365H18.0634L18.4712 13.0332L18.3156 13.5121L18.7234 13.2154L19.1301 13.5121L18.9745 13.0332L19.3823 12.7365H18.8789ZM18.7234 9.48427L18.5678 9.96316H18.0634L18.4712 10.2598L18.3156 10.7387L18.7234 10.442L19.1301 10.7387L18.9745 10.2598L19.3823 9.96316H18.8789L18.7234 9.48427ZM18.7234 6.71094L18.5678 7.18983H18.0634L18.4712 7.48649L18.3156 7.96538L18.7234 7.66872L19.1301 7.96538L18.9745 7.48649L19.3823 7.18983H18.8789L18.7234 6.71094ZM21.8812 12.7365L21.7256 12.2576L21.5701 12.7365H21.0667L21.4745 13.0332L21.3189 13.5121L21.7256 13.2154L22.1334 13.5121L21.9778 13.0332L22.3856 12.7365H21.8812ZM21.7256 9.48427L21.5701 9.96316H21.0667L21.4745 10.2598L21.3189 10.7387L21.7256 10.442L22.1334 10.7387L21.9778 10.2598L22.3856 9.96316H21.8812L21.7256 9.48427ZM21.7256 6.71094L21.5701 7.18983H21.0667L21.4745 7.48649L21.3189 7.96538L21.7256 7.66872L22.1334 7.96538L21.9778 7.48649L22.3856 7.18983H21.8812L21.7256 6.71094Z" fill="white"/>
</g>
<defs>
<clipPath id="clip0">
<rect width="40" height="40" fill="white"/>
</clipPath>
</defs>
</svg>
