<svg width="100" height="100" viewBox="0 0 100 100" fill="none" xmlns="http://www.w3.org/2000/svg">
<circle cx="50" cy="50" r="48.5" stroke="white" stroke-width="3"/>
<g clip-path="url(#clip0)">
<path d="M79.9413 37.6402C79.8008 34.4521 79.2852 32.2604 78.5467 30.3612C77.7849 28.3453 76.6128 26.5404 75.0771 25.04C73.5767 23.5163 71.76 22.3323 69.7674 21.5823C67.8572 20.8438 65.6769 20.3283 62.4889 20.1877C59.2771 20.0353 58.2574 20 50.1113 20C41.9652 20 40.9456 20.0353 37.7456 20.1758C34.5576 20.3164 32.3659 20.8324 30.4671 21.5704C28.4508 22.3323 26.6459 23.5044 25.1455 25.04C23.6218 26.5404 22.4382 28.3572 21.6878 30.3498C20.9493 32.2604 20.4337 34.4402 20.2932 37.6283C20.1407 40.8401 20.1055 41.8597 20.1055 50.0059C20.1055 58.152 20.1407 59.1716 20.2813 62.3716C20.4218 65.5596 20.9378 67.7513 21.6764 69.6505C22.4382 71.6664 23.6218 73.4713 25.1455 74.9717C26.6459 76.4954 28.4627 77.6794 30.4552 78.4294C32.3659 79.1679 34.5457 79.6834 37.7342 79.824C40.9337 79.965 41.9538 79.9998 50.0999 79.9998C58.246 79.9998 59.2656 79.965 62.4656 79.824C65.6536 79.6834 67.8453 79.1679 69.744 78.4294C73.7764 76.8704 76.9644 73.6824 78.5234 69.6505C79.2614 67.7399 79.7774 65.5596 79.918 62.3716C80.0586 59.1716 80.0938 58.152 80.0938 50.0059C80.0938 41.8597 80.0819 40.8401 79.9413 37.6402ZM74.5382 62.1371C74.4091 65.0674 73.9169 66.6497 73.5067 67.7046C72.4985 70.3185 70.424 72.393 67.8101 73.4012C66.7552 73.8115 65.1614 74.3037 62.2426 74.4323C59.0779 74.5733 58.1288 74.6081 50.1232 74.6081C42.1177 74.6081 41.1566 74.5733 38.0034 74.4323C35.0731 74.3037 33.4908 73.8115 32.4359 73.4012C31.1351 72.9205 29.9511 72.1586 28.9901 71.1623C27.9938 70.1894 27.2319 69.0173 26.7512 67.7165C26.341 66.6616 25.8488 65.0674 25.7201 62.149C25.5791 58.9844 25.5443 58.0348 25.5443 50.0292C25.5443 42.0237 25.5791 41.0626 25.7201 37.9098C25.8488 34.9796 26.341 33.3972 26.7512 32.3423C27.2319 31.0411 27.9938 29.8576 29.002 28.8961C29.9745 27.8998 31.1466 27.1379 32.4478 26.6576C33.5027 26.2474 35.0969 25.7552 38.0153 25.6261C41.18 25.4855 42.1296 25.4503 50.1347 25.4503C58.1521 25.4503 59.1013 25.4855 62.2545 25.6261C65.1847 25.7552 66.7671 26.2474 67.822 26.6576C69.1227 27.1379 70.3067 27.8998 71.2678 28.8961C72.2641 29.869 73.0259 31.0411 73.5067 32.3423C73.9169 33.3972 74.4091 34.991 74.5382 37.9098C74.6788 41.0745 74.714 42.0237 74.714 50.0292C74.714 58.0348 74.6788 58.9725 74.5382 62.1371Z" fill="white"/>
<path d="M50.1114 34.5928C41.6022 34.5928 34.6982 41.4963 34.6982 50.0059C34.6982 58.5156 41.6022 65.4191 50.1114 65.4191C58.6211 65.4191 65.5246 58.5156 65.5246 50.0059C65.5246 41.4963 58.6211 34.5928 50.1114 34.5928ZM50.1114 60.0041C44.5911 60.0041 40.1133 55.5267 40.1133 50.0059C40.1133 44.4851 44.5911 40.0078 50.1114 40.0078C55.6322 40.0078 60.1095 44.4851 60.1095 50.0059C60.1095 55.5267 55.6322 60.0041 50.1114 60.0041Z" fill="white"/>
<path d="M69.7326 33.9835C69.7326 35.9706 68.1215 37.5818 66.1339 37.5818C64.1468 37.5818 62.5356 35.9706 62.5356 33.9835C62.5356 31.996 64.1468 30.3853 66.1339 30.3853C68.1215 30.3853 69.7326 31.996 69.7326 33.9835Z" fill="white"/>
</g>
<defs>
<clipPath id="clip0">
<rect width="60" height="60" fill="white" transform="translate(20 20)"/>
</clipPath>
</defs>
</svg>
