<svg width="40" height="40" viewBox="0 0 40 40" fill="none" xmlns="http://www.w3.org/2000/svg">
<path d="M25.4125 26.85L28.2125 24.05C28.5897 23.6776 29.0668 23.4227 29.586 23.3161C30.1053 23.2096 30.6442 23.2562 31.1375 23.4501L34.55 24.8126C35.0486 25.0149 35.476 25.3603 35.7785 25.8052C36.0811 26.2501 36.2451 26.7746 36.25 27.3126V33.5626C36.2471 33.9285 36.1702 34.2901 36.0239 34.6256C35.8775 34.961 35.6648 35.2634 35.3986 35.5145C35.1323 35.7656 34.818 35.9602 34.4745 36.0866C34.131 36.213 33.7656 36.2686 33.4 36.2501C9.48755 34.7625 4.66255 14.5126 3.75005 6.76255C3.70769 6.38197 3.74639 5.99674 3.86361 5.63219C3.98082 5.26764 4.1739 4.93204 4.43013 4.64747C4.68636 4.3629 4.99994 4.13581 5.35024 3.98113C5.70054 3.82645 6.07962 3.7477 6.46255 3.75005H12.5C13.0388 3.75165 13.5648 3.91439 14.0103 4.21734C14.4558 4.52029 14.8005 4.9496 15 5.45005L16.3625 8.86255C16.5629 9.35389 16.614 9.89335 16.5095 10.4136C16.405 10.9338 16.1495 11.4117 15.775 11.7876L12.975 14.5876C12.975 14.5876 14.5875 25.5 25.4125 26.85Z" fill="white"/>
</svg>
