<svg width="100" height="100" viewBox="0 0 100 100" fill="none" xmlns="http://www.w3.org/2000/svg">
<circle cx="50" cy="50" r="48.5" stroke="white" stroke-width="3"/>
<g clip-path="url(#clip0)">
<path d="M49.86 20.0001C41.9278 20.0371 34.3331 23.2141 28.7372 28.8362C23.1414 34.4583 19.9999 42.0678 20 50.0001C20 57.9566 23.1607 65.5872 28.7868 71.2133C34.4129 76.8394 42.0435 80.0001 50 80.0001C57.9565 80.0001 65.5871 76.8394 71.2132 71.2133C76.8393 65.5872 80 57.9566 80 50.0001C80 42.0436 76.8393 34.413 71.2132 28.7869C65.5871 23.1608 57.9565 20.0001 50 20.0001C49.9533 20 49.9067 20 49.86 20.0001ZM62.265 38.0601C62.515 38.0551 63.0675 38.1176 63.4275 38.4101C63.6667 38.6178 63.8193 38.9078 63.855 39.2226C63.895 39.4551 63.945 39.9876 63.905 40.4026C63.455 45.1476 61.5 56.6576 60.505 61.9701C60.085 64.2201 59.2575 64.9726 58.455 65.0451C56.715 65.2076 55.3925 63.8951 53.705 62.7901C51.065 61.0576 49.5725 59.9801 47.01 58.2901C44.0475 56.3401 45.9675 55.2651 47.655 53.5151C48.0975 53.0551 55.7725 46.0726 55.9225 45.4401C55.94 45.3601 55.9575 45.0651 55.7825 44.9101C55.6075 44.7551 55.3475 44.8076 55.16 44.8501C54.895 44.9101 50.6775 47.7001 42.5075 53.2126C41.3075 54.0376 40.225 54.4376 39.2525 54.4126C38.1825 54.3926 36.1225 53.8101 34.59 53.3126C32.71 52.7001 31.2175 52.3776 31.3475 51.3401C31.415 50.8001 32.16 50.2476 33.58 49.6826C42.325 45.8726 48.155 43.3601 51.075 42.1476C59.405 38.6826 61.1375 38.0801 62.265 38.0601Z" fill="white"/>
</g>
<defs>
<clipPath id="clip0">
<rect width="60" height="60" fill="white" transform="translate(20 20)"/>
</clipPath>
</defs>
</svg>
