<svg width="56" height="73" viewBox="0 0 56 73" fill="none" xmlns="http://www.w3.org/2000/svg">
<path d="M44.688 6.296L43.7269 8.04995L44.688 6.296ZM48.912 29.72L47.2662 28.5836L47.2569 28.597L47.2479 28.6106L48.912 29.72ZM41.136 34.616L40.8012 32.6442L39.136 32.927V34.616H41.136ZM41.136 35.096H39.136V36.7446L40.7543 37.0592L41.136 35.096ZM47.376 37.496L48.4307 35.7967V35.7967L47.376 37.496ZM51.792 42.488L53.5809 41.5936V41.5936L51.792 42.488ZM2.64 71H0.64V73H2.64V71ZM2.64 2.45599V0.455994H0.64V2.45599H2.64ZM34.32 27.608L33.0633 26.0521L33.0484 26.0642L33.0336 26.0766L34.32 27.608ZM17.136 14.36V12.36H15.136V14.36H17.136ZM17.136 29.624H15.136V31.624H17.136V29.624ZM17.136 41.144V39.144H15.136V41.144H17.136ZM17.136 59H15.136V61H17.136V59ZM35.76 56.504L37.1473 57.9446L37.1609 57.9316L37.1742 57.9182L35.76 56.504ZM35.664 43.544L34.3052 45.0115L34.3333 45.0376L34.3624 45.0625L35.664 43.544ZM23.952 4.45599C32.9783 4.45599 39.4909 5.72885 43.7269 8.04995L45.6491 4.54205C40.5411 1.74314 33.2297 0.455994 23.952 0.455994V4.45599ZM43.7269 8.04995C47.6108 10.1781 49.696 13.9133 49.696 19.832H53.696C53.696 12.8227 51.1092 7.53389 45.6491 4.54205L43.7269 8.04995ZM49.696 19.832C49.696 23.4108 48.8495 26.2905 47.2662 28.5836L50.5578 30.8564C52.6865 27.7735 53.696 24.0611 53.696 19.832H49.696ZM47.2479 28.6106C45.7829 30.8081 43.6897 32.1537 40.8012 32.6442L41.4708 36.5878C45.3663 35.9263 48.4571 34.0079 50.5761 30.8294L47.2479 28.6106ZM39.136 34.616V35.096H43.136V34.616H39.136ZM40.7543 37.0592C42.8376 37.4643 44.6866 38.1807 46.3213 39.1953L48.4307 35.7967C46.3534 34.5073 44.0424 33.6237 41.5177 33.1328L40.7543 37.0592ZM46.3213 39.1953C47.8279 40.1304 49.0613 41.4987 50.0032 43.3824L53.5809 41.5936C52.3467 39.1253 50.6361 37.1656 48.4307 35.7967L46.3213 39.1953ZM50.0032 43.3824C50.9023 45.1807 51.424 47.719 51.424 51.128H55.424C55.424 47.369 54.8577 44.1473 53.5809 41.5936L50.0032 43.3824ZM51.424 51.128C51.424 56.7854 49.4182 61.0439 45.4684 64.1474L47.9396 67.2926C52.9498 63.3561 55.424 57.8866 55.424 51.128H51.424ZM45.4684 64.1474C41.4511 67.3038 35.7961 69 28.272 69V73C36.364 73 42.9969 71.1762 47.9396 67.2926L45.4684 64.1474ZM28.272 69H2.64V73H28.272V69ZM4.64 71V2.45599H0.64V71H4.64ZM2.64 4.45599H23.952V0.455994H2.64V4.45599ZM25.584 31.624C29.8733 31.624 33.4252 30.9716 35.6064 29.1394L33.0336 26.0766C32.0148 26.9324 29.7427 27.624 25.584 27.624V31.624ZM35.5767 29.1639C37.8047 27.3643 38.816 24.7842 38.816 21.752H34.816C34.816 23.8398 34.1633 25.1637 33.0633 26.0521L35.5767 29.1639ZM38.816 21.752C38.816 18.5681 37.6004 15.9543 34.965 14.373L32.907 17.803C34.1116 18.5257 34.816 19.6879 34.816 21.752H38.816ZM34.965 14.373C32.567 12.9342 29.0749 12.36 24.816 12.36V16.36C28.8771 16.36 31.465 16.9378 32.907 17.803L34.965 14.373ZM24.816 12.36H17.136V16.36H24.816V12.36ZM15.136 14.36V29.624H19.136V14.36H15.136ZM17.136 31.624H25.584V27.624H17.136V31.624ZM15.136 41.144V59H19.136V41.144H15.136ZM17.136 61H26.64V57H17.136V61ZM26.64 61C31.1282 61 34.8412 60.1653 37.1473 57.9446L34.3727 55.0634C33.2228 56.1707 30.8558 57 26.64 57V61ZM37.1742 57.9182C39.335 55.7575 40.352 52.9469 40.352 49.688H36.352C36.352 52.0611 35.641 53.7945 34.3458 55.0898L37.1742 57.9182ZM40.352 49.688C40.352 46.6001 39.2416 43.9764 36.9656 42.0255L34.3624 45.0625C35.6704 46.1836 36.352 47.6559 36.352 49.688H40.352ZM37.0228 42.0765C34.7034 39.9288 30.8535 39.144 26.16 39.144V43.144C30.6825 43.144 33.1686 43.9592 34.3052 45.0115L37.0228 42.0765ZM26.16 39.144H17.136V43.144H26.16V39.144Z" fill="url(#paint0_linear)"/>
<defs>
<linearGradient id="paint0_linear" x1="-6" y1="-35" x2="100.761" y2="63.9364" gradientUnits="userSpaceOnUse">
<stop stop-color="#7B37FF"/>
<stop offset="1" stop-color="#886AEA"/>
</linearGradient>
</defs>
</svg>
